<?xml version="1.0" encoding="UTF-8" standalone="no"?>
<!-- Created with Inkscape (http://www.inkscape.org/) -->

<svg
   xmlns:dc="http://purl.org/dc/elements/1.1/"
   xmlns:cc="http://creativecommons.org/ns#"
   xmlns:rdf="http://www.w3.org/1999/02/22-rdf-syntax-ns#"
   xmlns:svg="http://www.w3.org/2000/svg"
   xmlns="http://www.w3.org/2000/svg"
   xmlns:sodipodi="http://sodipodi.sourceforge.net/DTD/sodipodi-0.dtd"
   xmlns:inkscape="http://www.inkscape.org/namespaces/inkscape"
   width="210mm"
   height="297mm"
   viewBox="0 0 210 297"
   version="1.1"
   id="svg8"
   inkscape:version="0.92.1 r15371"
   sodipodi:docname="logo.svg">
  <defs
     id="defs2" />
  <sodipodi:namedview
     id="base"
     pagecolor="#ffffff"
     bordercolor="#666666"
     borderopacity="1.0"
     inkscape:pageopacity="0.0"
     inkscape:pageshadow="2"
     inkscape:zoom="0.40603397"
     inkscape:cx="183.42594"
     inkscape:cy="1071.2069"
     inkscape:document-units="mm"
     inkscape:current-layer="layer1"
     showgrid="false"
     inkscape:window-width="1920"
     inkscape:window-height="1017"
     inkscape:window-x="1912"
     inkscape:window-y="-8"
     inkscape:window-maximized="1" />
  <metadata
     id="metadata5">
    <rdf:RDF>
      <cc:Work
         rdf:about="">
        <dc:format>image/svg+xml</dc:format>
        <dc:type
           rdf:resource="http://purl.org/dc/dcmitype/StillImage" />
        <dc:title></dc:title>
      </cc:Work>
    </rdf:RDF>
  </metadata>
  <g
     inkscape:label="Layer 1"
     inkscape:groupmode="layer"
     id="layer1">
    <g
       id="g4540"
       transform="translate(-15.555482,-16.857961)">
      <path
         id="path4525"
         d="M 59.956313,122.47183 C 49.619316,120.82313 38.759955,115.64535 31.388513,108.85059 25.063477,103.02039 19.047382,92.944739 16.646204,84.160477 15.780397,80.993021 15.527481,77.747392 15.55788,70.194233 15.59411,61.199747 15.749589,59.890788 17.368026,54.958328 23.48998,36.300037 37.678182,22.579518 55.455363,18.126423 c 6.113748,-1.531465 18.249782,-1.705519 25.235768,-0.361929 24.843139,4.777999 41.779629,22.918589 44.033159,47.163701 l 0.42514,4.573819 3.86085,0.187413 3.86087,0.187414 -7.81218,9.409915 c -4.29669,5.175454 -8.0394,9.174879 -8.31712,8.887612 -0.27773,-0.287268 -3.80675,-4.521731 -7.84229,-9.409918 l -7.33735,-8.887609 4.20619,-0.189813 4.20621,-0.189813 -0.37399,-5.206238 C 108.57876,50.065465 100.98171,37.037541 89.732524,30.219817 83.456195,26.415964 77.986266,24.930365 69.161342,24.632811 59.38541,24.30319 54.759886,25.258937 46.327689,29.350788 c -5.10398,2.476789 -6.883726,3.790268 -11.798421,8.70741 -4.8645,4.866902 -6.262388,6.752699 -8.763092,11.821517 -3.536817,7.168977 -4.829829,12.777376 -4.829829,20.949368 0,13.866933 4.674063,25.227077 14.235229,34.598197 9.413389,9.22631 20.469161,13.6139 34.364329,13.63781 15.261938,0.0263 29.49959,-7.08857 38.732235,-19.35524 3.40533,-4.524404 4.69643,-5.635406 4.69643,-4.041363 0,1.243276 -6.11951,9.030643 -9.95915,12.673503 -6.469717,6.13814 -14.651158,10.8126 -22.73456,12.98939 -3.757966,1.01199 -16.599866,1.73294 -20.314547,1.14047 z"
         style="fill:#dbe3db;stroke-width:0.63482928"
         inkscape:connector-curvature="0" />
      <path
         id="path4521"
         d="m 94.303823,100.10085 c -1.202125,-1.254744 -1.52443,-1.979148 -1.019438,-2.291251 0.84738,-0.523707 4.575306,2.765681 4.066835,3.588411 -0.555499,0.89881 -1.210739,0.6199 -3.047397,-1.29716 z"
         style="fill:#000000;stroke-width:0.63482928"
         inkscape:connector-curvature="0" />
      <path
         id="path4519"
         d="m 36.935749,100.75919 c -0.568119,-0.35113 -0.254499,-0.99921 1.121579,-2.31756 1.273482,-1.220084 2.121845,-1.618516 2.545068,-1.195294 0.867247,0.867233 -2.589216,4.178734 -3.666647,3.512854 z"
         style="fill:#000000;stroke-width:0.63482928"
         inkscape:connector-curvature="0" />
      <path
         id="path4517"
         d="m 72.39716,80.025021 c -2.132211,-2.969046 -2.452021,-3.015649 -4.992794,-0.727552 l -1.439565,1.296398 -2.780084,-2.728426 -2.780061,-2.728434 2.156445,-2.286233 c 1.186049,-1.257427 2.156444,-2.509197 2.156444,-2.781711 0,-0.272516 -1.241546,-2.141292 -2.758971,-4.15284 -7.483516,-9.920358 -17.6885,-23.897043 -17.954613,-24.590535 -0.164835,-0.429346 0.384689,-1.228967 1.221008,-1.776939 1.519535,-0.995648 1.526878,-0.9878 11.050757,11.809148 5.241631,7.043 9.925868,13.448965 10.40941,14.235479 0.483566,0.786511 1.087891,1.357857 1.342967,1.269657 0.255051,-0.0882 3.828219,-3.450417 7.940329,-7.471596 4.112111,-4.021178 8.127407,-7.857917 8.922841,-8.526087 l 1.446284,-1.214855 2.848202,2.795291 2.848178,2.795292 -8.826171,8.904944 c -4.854399,4.897717 -8.955808,9.333453 -9.114238,9.857187 -0.158357,0.523733 0.680817,2.225905 1.865019,3.782604 l 2.153085,2.830361 -1.459696,1.123203 c -0.802848,0.617767 -1.625539,1.129559 -1.828212,1.137323 -0.202746,0.0077 -1.294644,-1.275492 -2.426564,-2.851679 z"
         style="fill:#ff0000;stroke-width:0.63482928"
         inkscape:connector-curvature="0" />
      <path
         id="path4513"
         d="m 94.334031,45.003781 c -0.46166,-0.461645 2.647448,-4.011697 3.513399,-4.011697 1.01963,0 0.487573,1.709941 -0.953215,3.063487 -1.589141,1.492921 -1.900265,1.608148 -2.560184,0.94821 z"
         style="fill:#000000;stroke-width:0.63482928"
         inkscape:connector-curvature="0" />
      <path
         id="path4511"
         d="m 39.006945,42.896569 c -1.221752,-1.275238 -1.621029,-2.124468 -1.197806,-2.547685 0.423222,-0.42322 1.245721,0.0029 2.467472,1.278028 1.221752,1.275238 1.621028,2.124468 1.197806,2.547688 -0.423222,0.42322 -1.245721,-0.0029 -2.467472,-1.278031 z"
         style="fill:#000000;stroke-width:0.63482928"
         inkscape:connector-curvature="0" />
      <path
         d="m 66.145905,40.50436 c -1.357075,-0.223668 -1.42836,-0.51841 -1.42836,-5.904724 v -5.669311 h 1.904488 1.904488 v 5.675998 c 0,3.121801 -0.214263,5.778926 -0.476128,5.904724 -0.261866,0.125798 -1.118891,0.122799 -1.904488,-0.0067 z M 24.088451,71.46389 v -1.904488 h 6.030875 6.030899 v 1.904488 1.904488 h -6.030899 -6.030875 z m 40.763962,36.71334 c 0.182351,-5.81743 0.18331,-5.82033 1.928313,-6.05259 l 1.745795,-0.23238 v 6.0526 6.05259 h -1.928314 -1.928313 z"
         style="fill:#00ccff;stroke-width:0.63482928"
         id="path4507"
         inkscape:connector-curvature="0" />
    </g>
  </g>
</svg>
